<?xml version="1.0" encoding="UTF-8" standalone="no"?>
<!DOCTYPE svg PUBLIC "-//W3C//DTD SVG 1.1//EN" "http://www.w3.org/Graphics/SVG/1.1/DTD/svg11.dtd">
<svg viewBox="0 0 1000 1000" version="1.1" xmlns="http://www.w3.org/2000/svg" xmlns:xlink="http://www.w3.org/1999/xlink">
	<g id="AngryDictatorCB" stroke-linejoin="round" stroke-miterlimit="1.5" stroke-width="4" stroke="#000" fill="none">
		<title>Angry Dictator—Color Book version, by Adam Stanislav</title>
		<path id="Hlava" d="m118.096 402.127c8.509-30.424 20.556-59.37 35.672-86.377 80.148 65.382 205.461 107.49 346.186 107.49 140.774 0 266.124-42.137 346.249-107.542 32.036 57.217 50.297 123.144 50.297 193.302 0 154.891-89.007 289.157-218.615 354.394-3.804-14.378-16.913-24.99-32.481-24.99h-145.278c-18.542 0-33.596 15.054-33.596 33.596v32.104c-161.416-13.515-295.472-123.908-343.767-272.771h0.116c8.819 0 17.483-5.307 25.121-15.388v-198.945c-7.638-10.081-16.302-15.388-25.121-15.388-1.614 0-3.21 0.174-4.783 0.515z"/>
		<g id="Eyes">
			<g id="Eye">
				<path d="m510 587c8.873-7.914 13.544-16.891 13.544-26.029 0-28.731-45.297-52.058-101.09-52.058-55.793 0-101.09 23.327-101.09 52.058 0 9.138 4.671 18.115 13.544 26.029z"/>
				<path d="m464 587c3.48-6.028 5.312-12.865 5.312-19.825 0-21.883-17.766-39.649-39.649-39.649-21.882 0-39.648 17.766-39.648 39.649 0 6.96 1.832 13.797 5.311 19.825z"/>
				<circle cx="445" cy="565" r="18"/>
			</g>
			<use xlink:href="#Eye" transform="translate(300)"/>
		</g>
		<circle id="Nose" cx="573" cy="663" r="33"/>
		<path id="Mouth" d="m650 800c7.809-7.27 11.921-15.516 11.921-23.91 0-26.393-39.872-47.821-88.983-47.821-49.111 0-88.983 21.428-88.983 47.821 0 8.394 4.112 16.64 11.921 23.91z"/>
		<path id="Goatee" d="m679 872c0-18.542-15.054-33.596-33.596-33.596h-145.278c-18.542 0-33.596 15.054-33.596 33.596v67.191c0 18.542 15.054 33.595 33.596 33.595h145.278c18.542 0 33.596-15.053 33.596-33.595z"/>
		<g id="Ear">
			<path d="m148 418c-7.638-10.081-16.302-15.388-25.121-15.388-27.73 0-50.242 51.467-50.242 114.86 0 63.394 22.512 114.861 50.242 114.861 8.819 0 17.483-5.307 25.121-15.388z"/>
			<path d="m131 435c-4.509-6.255-9.624-9.549-14.83-9.549-16.371 0-29.661 31.938-29.661 71.277 0 39.339 13.29 71.278 29.661 71.278 5.206 0 10.321-3.294 14.83-9.55z"/>
			<circle id="Earring" cx="120" cy="607" r="12"/>
		</g>
		<g id="Hat" stroke-width="8">
			<path d="m62 146c0 153.013 196.241 277.24 437.954 277.24 241.713 0 437.954-124.227 437.954-277.24-102.189 45.904-263.251 83.172-437.954 83.172-174.703 0-335.765-37.268-437.954-83.172z"/>
			<path d="m220.93 197.699c82.792 19.173 178.657 31.473 279.024 31.473 101.939 0 199.234-12.689 282.911-32.381 1.276-5.812 1.921-11.677 1.921-17.565 0-83.356-126.804-151.029-282.991-151.029-156.186 0-282.99 67.673-282.99 151.029 0 6.194 0.714 12.363 2.125 18.473z"/>
		</g>
	</g>
</svg>
